<svg xmlns="http://www.w3.org/2000/svg" width="19.029" height="24" viewBox="0 0 19.029 24">
    <defs>
        <style>
            .cls-1{fill:#f9f9f9}
        </style>
    </defs>
    <path id="bell" d="M72.071 19.1a3.73 3.73 0 0 1-1.135-1.543 17.822 17.822 0 0 1-1.185-7.057v-.027A6.809 6.809 0 0 0 65.734 4.3V2.674A2.677 2.677 0 0 0 63.06 0h-.222a2.677 2.677 0 0 0-2.675 2.674V4.3a6.809 6.809 0 0 0-4.017 6.2 17.822 17.822 0 0 1-1.184 7.055 3.73 3.73 0 0 1-1.135 1.545.683.683 0 0 0-.376.777.717.717 0 0 0 .707.55h5.164a3.628 3.628 0 0 0 7.254 0h5.164a.717.717 0 0 0 .707-.55.683.683 0 0 0-.376-.777zM61.573 2.674a1.267 1.267 0 0 1 1.265-1.265h.222a1.267 1.267 0 0 1 1.265 1.265v1.168a6.838 6.838 0 0 0-2.753 0V2.674zm1.376 19.918a2.221 2.221 0 0 1-2.218-2.165h4.436a2.221 2.221 0 0 1-2.218 2.164zm2.837-3.574H55.763a7.365 7.365 0 0 0 .369-.647 17.77 17.77 0 0 0 1.423-7.87 5.393 5.393 0 0 1 10.786 0v.026a17.734 17.734 0 0 0 1.423 7.842 7.369 7.369 0 0 0 .369.647z" class="cls-1" transform="translate(-53.434)"/>
</svg>
