<svg xmlns="http://www.w3.org/2000/svg" id="user" width="23.999" height="24.002" viewBox="0 0 23.999 24.002">
    <defs>
        <style>
            .cls-1{fill:#f9f9f9}
        </style>
    </defs>
    <path id="Caminho_1300" d="M12 0a12 12 0 0 0 0 24q.542 0 1.08-.048c.333-.03.664-.076.991-.133l.129-.019A12 12 0 0 0 12 0zm-.964 23.16h-.028c-.311-.028-.62-.069-.926-.122l-.052-.008q-.449-.08-.889-.2l-.071-.018a11.424 11.424 0 0 1-.848-.268l-.087-.03c-.273-.1-.542-.213-.806-.335l-.1-.044a9.404 9.404 0 0 1-.763-.4l-.106-.06q-.368-.215-.72-.459l-.107-.074a11.564 11.564 0 0 1-.676-.52l-.06-.053V17.2a4.406 4.406 0 0 1 4.4-4.4h5.6a4.406 4.406 0 0 1 4.4 4.4v3.373l-.053.044q-.335.28-.689.53l-.094.064q-.357.248-.731.467l-.094.053a9.75 9.75 0 0 1-.773.4l-.091.04c-.266.123-.537.236-.812.337l-.08.029c-.28.1-.564.191-.852.269l-.069.017c-.294.078-.59.144-.89.2l-.052.008c-.306.054-.616.1-.927.123h-.028c-.32.028-.64.042-.964.042s-.642-.009-.961-.036zM20 19.833V17.2a5.206 5.206 0 0 0-5.2-5.2H9.2A5.206 5.206 0 0 0 4 17.2v2.631a11.2 11.2 0 1 1 16 0zm0 0" class="cls-1" data-name="Caminho 1300"/>
    <path id="Caminho_1301" d="M164 64a4 4 0 1 0 4 4 4 4 0 0 0-4-4zm0 7.2a3.2 3.2 0 1 1 3.2-3.2 3.2 3.2 0 0 1-3.2 3.2zm0 0" class="cls-1" data-name="Caminho 1301" transform="translate(-151.999 -60.8)"/>
</svg>
