<?xml version="1.0" encoding="utf-8"?>
<!-- Generator: Adobe Illustrator 25.2.1, SVG Export Plug-In . SVG Version: 6.00 Build 0)  -->
<svg version="1.1" id="Camada_1" xmlns="http://www.w3.org/2000/svg" xmlns:xlink="http://www.w3.org/1999/xlink" x="0px" y="0px"
	 viewBox="0 0 200 200" style="enable-background:new 0 0 200 200;" xml:space="preserve">
<style type="text/css">
	.st0{fill:#8CBF44;}
	.st1{fill:#183F71;}
</style>
<g>
	<path class="st0" d="M111.6,125.9c0,0,5.1-17.3,18.4-23.1c0,0-14.5,12.6-15.7,25.1c0,0,1.8-1.6,4.7-2.5c4.3-1.4,10.6-3,14.7-10.1
		c4.7-8.3,1.6-9.8,3.7-19.2c0,0-17.7-3.3-21.4,15.8c0,0,3.7-17.4-10-31.2C96.2,71,91.4,77.7,67.6,55c0,0-8.1,18.2,2.7,33.7
		c10.8,15.5,11.6,14,18.4,23.9c6.8,9.8,4.6,28.1-4.7,32.8c0,0,21-1.1,23.9-17.8c2.8-16.8-11.6-38.8-25.2-48.2
		C82.6,79.4,109.9,92,111.6,125.9z"/>
	<path class="st0" d="M169.7,128.4c-11.9,1.6-14.7-1.3-24.5-3.5c-16.2-3.7-27.9,4.1-31.4,5.3c0,0,12.1,15.6,31.3,15.2
		c18.3-0.3,33.5-11.1,40.3-24.7C185.5,120.6,177.2,127.4,169.7,128.4z"/>
</g>
<g>
	<path class="st1" d="M177.1,68.2c-8.8-8.8-20.4-13.2-32-13.2c-11.6,0-23.1,4.4-32,13.2c-2.8,2.8-5.1,5.8-7,9c0.5,0.4,1,0.9,1.6,1.5
		c4.3,4.3,7.4,9.4,9.3,15.1c1.2-5.1,3.7-10,7.7-13.9c5.6-5.6,13-8.4,20.4-8.4s14.7,2.8,20.4,8.4c5.6,5.6,8.4,13,8.4,20.4
		c0,7.4-2.8,14.7-8.4,20.4c-2.1,2.1-4.3,3.7-6.8,5c2.8,0.5,5.8,0.7,10.6,0c6.5-0.9,14.3-7.1,14.3-7.1l4.1-3.3
		c1.7-4.8,2.5-9.9,2.5-15C190.3,88.6,185.9,77,177.1,68.2z"/>
	<path class="st1" d="M110,133.3c-2.7,0-4.9,2.2-4.9,4.9c0,2.7,2.2,4.9,4.9,4.9c2.7,0,4.9-2.2,4.9-4.9
		C114.9,135.5,112.7,133.3,110,133.3z"/>
	<path class="st1" d="M85.3,112.5H84v-1.7c-1.7-2.2-3-3.7-4.4-5.4c-2.6-3-5.5-6.5-11.6-15.1c-0.1-0.2-0.3-0.4-0.4-0.6v22.9
		c0,0-34.3,0-34.3,0L63.8,82c-1.7-5-2.3-10.5-1.7-16.3c0.3-2.4,0.7-4.6,1.1-6.4L10,112.5l16.4,16.4h41.1v16.4h10.3l4.9-2.5
		c0.4-0.2,0.9-0.5,1.3-0.8v-13.1h5.8c0.4-5.5-0.8-11.1-3.4-14.8C86,113.6,85.6,113,85.3,112.5z"/>
</g>
</svg>
