<?xml version="1.0" encoding="utf-8"?>
<!-- Generator: Adobe Illustrator 25.2.1, SVG Export Plug-In . SVG Version: 6.00 Build 0)  -->
<svg version="1.1" id="Camada_1" xmlns="http://www.w3.org/2000/svg" xmlns:xlink="http://www.w3.org/1999/xlink" x="0px" y="0px"
	 viewBox="0 0 400.3 99.3" style="enable-background:new 0 0 400.3 99.3;" xml:space="preserve">
<style type="text/css">
	.st0{fill:#183F71;}
	.st1{fill:#8CBF44;}
</style>
<g>
	<g id="Grupo_1974-2_11_" transform="translate(0 0.064)">
		<path id="Caminho_1002_10_" class="st0" d="M16,17.7h13.2v54.7H41V17.7h13.2V23h10.4V4.6h-59V23H16V17.7z"/>
		<path id="Caminho_1003_10_" class="st0" d="M86.4,72.5h11V50.6h11.2c5.5,0,20.8-1.9,20.8-22.9S111,4.6,111,4.6h-31v13.6h6.2v54.3
			H86.4z M97.5,18.2h8.5c5.8,0.6,10.1,5.6,9.8,11.5c0.4,4.2-2.7,7.9-6.9,8.2c-0.1,0-0.2,0-0.3,0H97.2L97.5,18.2L97.5,18.2z"/>
		<path id="Caminho_1004_10_" class="st0" d="M170,72.9l21.6-54.5h7.4V4.6h-16.5l-12.7,33.3L158.3,4.6h-17.2v13.8h7.8L170,72.9z"/>
		<path id="Caminho_1005_10_" class="st0" d="M12.8,91.1l-3-9.1h-4l4.9,12.7h4.2L19.6,82h-4L12.8,91.1z"/>
		<rect id="Retângulo_2117_11_" x="21.1" y="82" class="st0" width="4" height="12.7"/>
		<path id="Caminho_1006_11_" class="st0" d="M36.6,87.3c-1.2-0.6-2.5-1-3.8-1.1c-0.6-0.2-1.1-0.2-1.3-0.4c-0.2-0.2-0.2-0.4-0.2-0.6
			c0-0.2,0.2-0.4,0.4-0.6c0.3-0.2,0.7-0.3,1.1-0.2c0.5,0,0.9,0.1,1.3,0.4c0.3,0.4,0.5,0.8,0.6,1.3l3.8-0.2c-0.1-1.1-0.6-2.2-1.5-3
			c-1.2-0.7-2.5-1-3.8-0.8c-1.1,0-2.1,0.1-3.2,0.4c-0.6,0.3-1.2,0.7-1.7,1.3c-0.4,0.5-0.7,1.2-0.6,1.9c0,0.9,0.4,1.9,1.1,2.5
			c1.1,0.9,2.4,1.4,3.8,1.5c0.8,0.1,1.5,0.4,2.1,0.8c0.2,0.2,0.4,0.5,0.4,0.8c0,0.3-0.2,0.6-0.4,0.8c-0.4,0.3-0.8,0.4-1.3,0.4
			c-0.7,0.1-1.4-0.3-1.7-0.8c-0.3-0.4-0.4-1-0.4-1.5l-3.8,0.2c0.1,1.2,0.7,2.3,1.5,3.2c1.3,1,2.9,1.4,4.5,1.3c1.1,0,2.2-0.2,3.2-0.6
			c0.8-0.3,1.4-0.8,1.9-1.5c0.4-0.7,0.7-1.5,0.6-2.3c0-0.7-0.2-1.3-0.4-1.9C38,88.2,37.2,87.8,36.6,87.3z"/>
		<rect id="Retângulo_2118_11_" x="40.8" y="82" class="st0" width="4" height="12.7"/>
		<path id="Caminho_1007_11_" class="st0" d="M53.8,81.8c-1.8-0.1-3.5,0.5-4.9,1.7c-1.2,1.3-1.9,3.1-1.7,4.9
			c-0.1,1.3,0.2,2.6,0.8,3.8c0.5,1,1.3,1.7,2.3,2.1c1.1,0.5,2.4,0.7,3.6,0.6c1.3,0.1,2.5-0.2,3.6-0.8c0.9-0.6,1.6-1.4,2.1-2.3
			c0.6-1.1,0.8-2.4,0.8-3.6c0.1-1.7-0.5-3.4-1.7-4.7C57.4,82.4,55.6,81.8,53.8,81.8z M55.7,91.1c-1,1.1-2.6,1.1-3.6,0.2
			c-0.1-0.1-0.1-0.1-0.2-0.2c-0.5-0.8-0.7-1.8-0.6-2.8c-0.1-1,0.1-1.9,0.6-2.8c1-1.1,2.6-1.1,3.6-0.2c0.1,0.1,0.1,0.1,0.2,0.2
			c0.5,0.7,0.8,1.6,0.8,2.5C56.5,89.2,56.2,90.2,55.7,91.1z"/>
		<path id="Caminho_1008_11_" class="st0" d="M70.9,89l-4.9-7h-3.6v12.7h3.8v-7l4.7,7h3.8V82h-3.8V89z"/>
		<rect id="Retângulo_2119_11_" x="83.5" y="82" class="st0" width="4" height="12.7"/>
		<path id="Caminho_1009_11_" class="st0" d="M98.7,89l-4.9-7h-3.6v12.7h3.6v-7l4.9,7h3.6V82h-3.6V89z"/>
		<path id="Caminho_1010_11_" class="st0" d="M113.6,89l-4.9-7h-3.6v12.7h3.6v-7l4.9,7h3.6V82h-3.6V89z"/>
		<path id="Caminho_1011_11_" class="st0" d="M125.9,81.8c-1.8-0.1-3.5,0.5-4.9,1.7c-1.2,1.3-1.9,3.1-1.7,4.9
			c-0.1,1.3,0.2,2.6,0.8,3.8c0.5,1,1.3,1.7,2.3,2.1c1.1,0.5,2.4,0.7,3.6,0.6c1.3,0.1,2.5-0.2,3.6-0.8c0.9-0.6,1.6-1.4,2.1-2.3
			c0.6-1.1,0.8-2.4,0.8-3.6c0.1-1.7-0.5-3.4-1.7-4.7C129.5,82.3,127.7,81.7,125.9,81.8z M128,91.1c-1,1.1-2.6,1.1-3.6,0.2
			c-0.1-0.1-0.1-0.1-0.2-0.2c-0.5-0.8-0.7-1.8-0.6-2.8c-0.1-1,0.1-1.9,0.6-2.8c1-1.1,2.6-1.1,3.6-0.2c0.1,0.1,0.1,0.1,0.2,0.2
			c0.5,0.7,0.8,1.6,0.8,2.5C128.8,89.2,128.5,90.2,128,91.1z"/>
		<path id="Caminho_1012_11_" class="st0" d="M142.4,82l-2.8,9.1l-3-9.1h-4l4.7,12.7h4.5l4.7-12.7H142.4z"/>
		<path id="Caminho_1013_11_" class="st0" d="M150.3,82l-4.9,12.7h4l0.6-2.1h4.5l0.6,2.1h4.2L154.5,82H150.3z M150.9,89.9l1.5-4.7
			l1.5,4.7H150.9z"/>
		<path id="Caminho_1014_11_" class="st0" d="M158.6,85.2h4v9.5h3.8v-9.5h4V82h-11.9V85.2z"/>
		<path id="Caminho_1015_11_" class="st0" d="M177.7,81.8c-1.8-0.1-3.5,0.5-4.9,1.7c-1.3,1.3-1.9,3.1-1.7,4.9
			c-0.1,1.3,0.2,2.6,0.8,3.8c0.5,1,1.3,1.7,2.3,2.1c1.1,0.5,2.4,0.7,3.6,0.6c1.3,0.1,2.5-0.2,3.6-0.8c0.9-0.6,1.6-1.4,2.1-2.3
			c0.6-1.1,0.8-2.4,0.8-3.6c0.1-1.7-0.5-3.4-1.7-4.7C181.3,82.3,179.5,81.7,177.7,81.8z M179.8,91.1c-1,1.1-2.6,1.1-3.6,0.2
			c-0.1-0.1-0.1-0.1-0.2-0.2c-0.5-0.8-0.7-1.8-0.6-2.8c-0.1-1,0.1-1.9,0.6-2.8c1-1.1,2.6-1.1,3.6-0.2c0.1,0.1,0.1,0.1,0.2,0.2
			c0.5,0.7,0.8,1.6,0.8,2.5C180.6,89.2,180.3,90.2,179.8,91.1z"/>
		<path id="Caminho_1016_11_" class="st0" d="M197.2,91.1c0-0.2-0.2-0.4-0.6-0.8c-0.2-0.4-0.4-0.6-0.6-0.6c-0.2-0.2-0.6-0.2-1.1-0.4
			c0.6-0.2,1.1-0.2,1.3-0.4c0.6-0.2,0.8-0.8,1.3-1.3c0.3-0.6,0.4-1.2,0.4-1.9c0-0.8-0.2-1.5-0.6-2.1c-0.4-0.5-0.9-1-1.5-1.3
			c-0.9-0.2-1.8-0.3-2.8-0.2h-6.4v12.7h4v-5.1h0.2c0.4,0,0.6,0.2,1.1,0.2c0.3,0.3,0.5,0.7,0.6,1.1l2.1,3.8h4.5L197.2,91.1z
			 M193.8,86.7c-0.2,0.2-0.4,0.4-0.6,0.4c-0.3,0.2-0.7,0.2-1.1,0.2h-1.7v-2.5h1.7c0.5,0,1,0.1,1.5,0.2c0.2,0.2,0.4,0.5,0.4,0.8
			C194,86.1,193.9,86.4,193.8,86.7L193.8,86.7z"/>
	</g>
	<g>
		<path class="st1" d="M315.9,75.6c0,0,5.1-17.3,18.4-23.1c0,0-14.5,12.6-15.7,25.1c0,0,1.8-1.6,4.7-2.5c4.3-1.4,10.6-3,14.7-10.1
			c4.7-8.3,1.6-9.8,3.7-19.2c0,0-17.7-3.3-21.4,15.8c0,0,3.7-17.4-10-31.2c-9.6-9.6-14.4-2.9-38.2-25.6c0,0-8.1,18.2,2.7,33.7
			c10.8,15.5,11.6,14,18.4,23.9c6.8,9.8,4.6,28.1-4.7,32.8c0,0,21-1.1,23.9-17.8c2.8-16.8-11.6-38.8-25.2-48.2
			C287,29,314.3,41.7,315.9,75.6z"/>
		<path class="st1" d="M374.1,78c-11.9,1.6-14.7-1.3-24.5-3.5c-16.2-3.7-27.9,4.1-31.4,5.3c0,0,12.1,15.6,31.3,15.2
			c18.3-0.3,33.5-11.1,40.3-24.7C389.9,70.3,381.6,77.1,374.1,78z"/>
	</g>
	<g>
		<path class="st0" d="M381.5,17.9c-8.8-8.8-20.4-13.2-32-13.2c-11.6,0-23.1,4.4-32,13.2c-2.8,2.8-5.1,5.8-7,9
			c0.5,0.4,1,0.9,1.6,1.5c4.3,4.3,7.4,9.4,9.3,15.1c1.2-5.1,3.7-10,7.7-13.9c5.6-5.6,13-8.4,20.4-8.4s14.7,2.8,20.4,8.4
			c5.6,5.6,8.4,13,8.4,20.4s-2.8,14.7-8.4,20.4c-2.1,2.1-4.3,3.7-6.8,5c2.8,0.5,5.8,0.7,10.6,0c6.5-0.9,14.3-7.1,14.3-7.1l4.1-3.3
			c1.7-4.8,2.5-9.9,2.5-15C394.7,38.3,390.3,26.7,381.5,17.9z"/>
		<path class="st0" d="M314.4,83c-2.7,0-4.9,2.2-4.9,4.9c0,2.7,2.2,4.9,4.9,4.9c2.7,0,4.9-2.2,4.9-4.9C319.3,85.2,317.1,83,314.4,83
			z"/>
		<path class="st0" d="M289.6,62.2h-1.3v-1.7c-1.7-2.2-3-3.7-4.4-5.4c-2.6-3-5.5-6.5-11.6-15.1c-0.1-0.2-0.3-0.4-0.4-0.6v22.9
			c0,0-34.3,0-34.3,0l30.5-30.5c-1.7-5-2.3-10.5-1.7-16.3c0.3-2.4,0.7-4.6,1.1-6.4l-53.2,53.2l16.4,16.4H272V95h10.3l4.9-2.5
			c0.4-0.2,0.9-0.5,1.3-0.8V78.6h5.8c0.4-5.5-0.8-11.1-3.4-14.8C290.4,63.2,290,62.7,289.6,62.2z"/>
	</g>
</g>
</svg>
